<svg xmlns="http://www.w3.org/2000/svg" xmlns:xlink="http://www.w3.org/1999/xlink" width="500" zoomAndPan="magnify" viewBox="0 0 375 374.999991" height="500" preserveAspectRatio="xMidYMid meet" version="1.0"><defs><g/><clipPath id="7fae005544"><path d="M 37.5 37.132812 L 337.867188 37.132812 L 337.867188 337.5 L 37.5 337.5 Z M 37.5 37.132812 " clip-rule="nonzero"/></clipPath><clipPath id="1e6d3725c0"><path d="M 54.75 37.132812 L 320.617188 37.132812 C 330.144531 37.132812 337.867188 44.855469 337.867188 54.382812 L 337.867188 320.25 C 337.867188 329.777344 330.144531 337.5 320.617188 337.5 L 54.75 337.5 C 45.222656 337.5 37.5 329.777344 37.5 320.25 L 37.5 54.382812 C 37.5 44.855469 45.222656 37.132812 54.75 37.132812 Z M 54.75 37.132812 " clip-rule="nonzero"/></clipPath><clipPath id="211d0fba7a"><path d="M 0.5 0.132812 L 300.867188 0.132812 L 300.867188 300.5 L 0.5 300.5 Z M 0.5 0.132812 " clip-rule="nonzero"/></clipPath><clipPath id="2234e306d2"><path d="M 17.75 0.132812 L 283.617188 0.132812 C 293.144531 0.132812 300.867188 7.855469 300.867188 17.382812 L 300.867188 283.25 C 300.867188 292.777344 293.144531 300.5 283.617188 300.5 L 17.75 300.5 C 8.222656 300.5 0.5 292.777344 0.5 283.25 L 0.5 17.382812 C 0.5 7.855469 8.222656 0.132812 17.75 0.132812 Z M 17.75 0.132812 " clip-rule="nonzero"/></clipPath><clipPath id="0cec7232e5"><rect x="0" width="301" y="0" height="301"/></clipPath><clipPath id="94a5aa8df8"><rect x="0" width="198" y="0" height="283"/></clipPath><clipPath id="da27a599e3"><path d="M 148.78125 119.308594 L 217.613281 119.308594 L 217.613281 222.285156 L 148.78125 222.285156 Z M 148.78125 119.308594 " clip-rule="nonzero"/></clipPath><clipPath id="29a928f2ca"><path d="M 183.195312 119.308594 L 217.613281 222.25 L 148.78125 222.25 Z M 183.195312 119.308594 " clip-rule="nonzero"/></clipPath><clipPath id="31a6b89324"><path d="M 0.78125 0.308594 L 69.613281 0.308594 L 69.613281 103.285156 L 0.78125 103.285156 Z M 0.78125 0.308594 " clip-rule="nonzero"/></clipPath><clipPath id="d1583396d7"><path d="M 35.195312 0.308594 L 69.613281 103.25 L 0.78125 103.25 Z M 35.195312 0.308594 " clip-rule="nonzero"/></clipPath><clipPath id="78154591ac"><rect x="0" width="70" y="0" height="104"/></clipPath></defs><g clip-path="url(#7fae005544)"><g clip-path="url(#1e6d3725c0)"><g transform="matrix(1, 0, 0, 1, 37, 37)"><g clip-path="url(#0cec7232e5)"><g clip-path="url(#211d0fba7a)"><g clip-path="url(#2234e306d2)"><path fill="#f0f0e8" d="M 0.5 0.132812 L 300.867188 0.132812 L 300.867188 300.5 L 0.5 300.5 Z M 0.5 0.132812 " fill-opacity="1" fill-rule="nonzero"/></g></g></g></g></g></g><g transform="matrix(1, 0, 0, 1, 89, 70)"><g clip-path="url(#94a5aa8df8)"><g fill="#8aa8b2" fill-opacity="1"><g transform="translate(0.190304, 218.60247)"><g><path d="M 7.390625 3.828125 L 81.796875 -199.703125 L 114.625 -203.53125 L 187.9375 -3.5625 L 147.453125 3.828125 L 127.203125 -51.703125 L 55.53125 -51.703125 L 36.65625 0 Z M 65.65625 -79.609375 L 116.8125 -79.609375 L 91.375 -149.359375 Z M 65.65625 -79.609375 "/></g></g></g></g></g><g clip-path="url(#da27a599e3)"><g clip-path="url(#29a928f2ca)"><g transform="matrix(1, 0, 0, 1, 148, 119)"><g clip-path="url(#78154591ac)"><g clip-path="url(#31a6b89324)"><g clip-path="url(#d1583396d7)"><path fill="#8aa8b2" d="M 0.78125 0.308594 L 69.613281 0.308594 L 69.613281 103.285156 L 0.78125 103.285156 Z M 0.78125 0.308594 " fill-opacity="1" fill-rule="nonzero"/></g></g></g></g></g></g></svg>