<svg xmlns="http://www.w3.org/2000/svg" xmlns:xlink="http://www.w3.org/1999/xlink" width="280" zoomAndPan="magnify" viewBox="0 0 210 74.999997" height="100" preserveAspectRatio="xMidYMid meet" version="1.0"><path fill="#8aa8b2" d="M 29.78125 13.644531 L 27.28125 14.039062 L 19.136719 36.3125 C 14.65625 48.5625 11.042969 58.636719 11.105469 58.699219 C 11.210938 58.804688 16.351562 58.089844 16.523438 57.945312 C 16.566406 57.910156 17.550781 55.304688 18.710938 52.160156 L 20.824219 46.4375 L 37.757812 46.4375 L 40.011719 52.550781 C 41.25 55.910156 42.300781 58.695312 42.34375 58.742188 C 42.425781 58.820312 49 57.648438 49.09375 57.539062 C 49.121094 57.503906 45.503906 47.542969 41.050781 35.398438 C 35.757812 20.957031 32.84375 13.308594 32.621094 13.285156 C 32.433594 13.265625 31.15625 13.425781 29.78125 13.644531 M 53.425781 13.820312 C 51.726562 14.132812 50.3125 14.417969 50.289062 14.453125 C 50.265625 14.488281 53.675781 24.457031 57.863281 36.597656 L 65.480469 58.679688 L 66.640625 58.601562 C 67.277344 58.558594 68.550781 58.394531 69.46875 58.238281 L 71.136719 57.957031 L 79.390625 35.679688 C 83.929688 23.425781 87.605469 13.371094 87.5625 13.335938 C 87.515625 13.296875 86.28125 13.433594 84.820312 13.632812 L 82.15625 14 L 75.808594 31.058594 C 72.320312 40.441406 69.359375 48.074219 69.230469 48.023438 C 69.105469 47.972656 67.886719 44.675781 66.523438 40.703125 C 64.542969 34.941406 62.5625 29.183594 60.582031 23.421875 C 58.679688 17.894531 57.121094 13.332031 57.121094 13.285156 C 57.121094 13.152344 56.753906 13.207031 53.425781 13.820312 M 164.757812 17.15625 L 156.359375 21.078125 L 155.683594 22.570312 C 154.671875 24.804688 153.691406 27.894531 153.09375 30.71875 C 152.433594 33.859375 152.363281 39.464844 152.957031 42.132812 C 155.148438 52 162.496094 58.015625 173.210938 58.722656 L 175.425781 58.871094 L 183.941406 54.933594 L 192.457031 51 L 193.296875 49.023438 C 195.234375 44.449219 196.316406 39.480469 196.316406 35.167969 C 196.316406 23.15625 189.105469 14.996094 177.117188 13.445312 C 173.570312 12.988281 173.910156 12.886719 164.757812 17.15625 M 100.441406 13.90625 L 97.558594 14.039062 L 97.5 36.214844 L 97.4375 58.386719 L 99.273438 58.234375 C 100.285156 58.148438 101.851562 58.078125 102.757812 58.078125 L 104.398438 58.078125 L 104.398438 13.679688 L 103.859375 13.726562 C 103.5625 13.753906 102.023438 13.835938 100.441406 13.90625 M 122.757812 13.90625 L 119.878906 14.039062 L 119.816406 36.058594 L 119.757812 58.078125 L 145.097656 58.078125 L 145.992188 55.496094 C 146.484375 54.078125 146.882812 52.839844 146.882812 52.742188 C 146.878906 52.644531 142.371094 52.535156 136.859375 52.5 L 126.839844 52.4375 L 126.714844 13.679688 L 126.179688 13.726562 C 125.882812 13.753906 124.34375 13.835938 122.757812 13.90625 M 160.8125 20.722656 C 160.460938 21.648438 159.625 27.066406 159.457031 29.519531 C 159.261719 32.394531 159.679688 36.351562 160.460938 39.058594 C 161.996094 44.347656 165.382812 48.542969 170.191406 51.113281 L 171.542969 51.839844 L 187.878906 51.839844 L 188.25 50.214844 C 189.472656 44.824219 189.636719 38.207031 188.648438 34.140625 C 187.167969 28.074219 183.535156 23.410156 178.148438 20.671875 C 177.171875 20.179688 176.839844 20.160156 169.082031 20.160156 L 161.027344 20.160156 Z M 160.8125 20.722656 " fill-opacity="1" fill-rule="evenodd"/></svg>